<mxfile host="app.diagrams.net" agent="Mozilla/5.0 (Macintosh; Intel Mac OS X 10_15_7) AppleWebKit/537.36 (KHTML, like Gecko) Chrome/135.0.0.0 Safari/537.36" version="26.1.3">
  <diagram name="系统架构图" id="zy7hzJetPBVgdsyrY6hQ">
    <mxGraphModel dx="1193" dy="704" grid="1" gridSize="10" guides="1" tooltips="1" connect="1" arrows="1" fold="1" page="1" pageScale="1" pageWidth="827" pageHeight="1169" math="0" shadow="0">
      <root>
        <mxCell id="0" />
        <mxCell id="1" parent="0" />
        <mxCell id="udzYq2lRkhovAogSRPK8-55" value="VM" style="rounded=0;whiteSpace=wrap;html=1;" vertex="1" parent="1">
          <mxGeometry x="1160" y="220" width="140" height="160" as="geometry" />
        </mxCell>
        <mxCell id="udzYq2lRkhovAogSRPK8-54" value="CVM" style="rounded=0;whiteSpace=wrap;html=1;fillColor=#dae8fc;strokeColor=#6c8ebf;" vertex="1" parent="1">
          <mxGeometry x="1010" y="220" width="140" height="160" as="geometry" />
        </mxCell>
        <mxCell id="udzYq2lRkhovAogSRPK8-79" style="edgeStyle=orthogonalEdgeStyle;rounded=0;orthogonalLoop=1;jettySize=auto;html=1;exitX=0;exitY=0.25;exitDx=0;exitDy=0;entryX=0.884;entryY=-0.022;entryDx=0;entryDy=0;entryPerimeter=0;" edge="1" parent="1" source="udzYq2lRkhovAogSRPK8-13" target="udzYq2lRkhovAogSRPK8-67">
          <mxGeometry relative="1" as="geometry" />
        </mxCell>
        <mxCell id="udzYq2lRkhovAogSRPK8-13" value="Service Enclave" style="rounded=0;whiteSpace=wrap;html=1;fillColor=#dae8fc;strokeColor=#6c8ebf;" vertex="1" parent="1">
          <mxGeometry x="840" y="220" width="140" height="160" as="geometry" />
        </mxCell>
        <mxCell id="udzYq2lRkhovAogSRPK8-1" value="U-mode/VU-mode" style="text;html=1;align=right;verticalAlign=middle;resizable=0;points=[];autosize=1;strokeColor=none;fillColor=none;" vertex="1" parent="1">
          <mxGeometry x="310" y="240" width="120" height="20" as="geometry" />
        </mxCell>
        <mxCell id="udzYq2lRkhovAogSRPK8-2" value="S-mode/VS-mode" style="text;html=1;align=right;verticalAlign=middle;resizable=0;points=[];autosize=1;strokeColor=none;fillColor=none;" vertex="1" parent="1">
          <mxGeometry x="310" y="340" width="120" height="20" as="geometry" />
        </mxCell>
        <mxCell id="udzYq2lRkhovAogSRPK8-3" value="HS-mode" style="text;html=1;align=right;verticalAlign=middle;resizable=0;points=[];autosize=1;strokeColor=none;fillColor=none;" vertex="1" parent="1">
          <mxGeometry x="350" y="430" width="80" height="20" as="geometry" />
        </mxCell>
        <mxCell id="udzYq2lRkhovAogSRPK8-4" value="M-mode" style="text;html=1;align=right;verticalAlign=middle;resizable=0;points=[];autosize=1;strokeColor=none;fillColor=none;" vertex="1" parent="1">
          <mxGeometry x="350" y="510" width="80" height="20" as="geometry" />
        </mxCell>
        <mxCell id="udzYq2lRkhovAogSRPK8-5" value="Hardware" style="text;html=1;align=right;verticalAlign=middle;resizable=0;points=[];autosize=1;strokeColor=none;fillColor=none;" vertex="1" parent="1">
          <mxGeometry x="350" y="590" width="80" height="20" as="geometry" />
        </mxCell>
        <mxCell id="udzYq2lRkhovAogSRPK8-6" value="App" style="rounded=0;whiteSpace=wrap;html=1;" vertex="1" parent="1">
          <mxGeometry x="440" y="230" width="80" height="40" as="geometry" />
        </mxCell>
        <mxCell id="udzYq2lRkhovAogSRPK8-7" value="App Enclave" style="rounded=0;whiteSpace=wrap;html=1;fillColor=#dae8fc;strokeColor=#6c8ebf;" vertex="1" parent="1">
          <mxGeometry x="640" y="230" width="90" height="40" as="geometry" />
        </mxCell>
        <mxCell id="udzYq2lRkhovAogSRPK8-8" value="Enclave App" style="rounded=0;whiteSpace=wrap;html=1;" vertex="1" parent="1">
          <mxGeometry x="850" y="230" width="120" height="40" as="geometry" />
        </mxCell>
        <mxCell id="udzYq2lRkhovAogSRPK8-9" value="App" style="rounded=0;whiteSpace=wrap;html=1;" vertex="1" parent="1">
          <mxGeometry x="1040" y="230" width="80" height="40" as="geometry" />
        </mxCell>
        <mxCell id="udzYq2lRkhovAogSRPK8-10" value="App" style="rounded=0;whiteSpace=wrap;html=1;" vertex="1" parent="1">
          <mxGeometry x="1190" y="230" width="80" height="40" as="geometry" />
        </mxCell>
        <mxCell id="udzYq2lRkhovAogSRPK8-11" value="Host OS&lt;div&gt;(S-mode)&lt;/div&gt;" style="rounded=0;whiteSpace=wrap;html=1;" vertex="1" parent="1">
          <mxGeometry x="440" y="330" width="80" height="40" as="geometry" />
        </mxCell>
        <mxCell id="udzYq2lRkhovAogSRPK8-12" value="Utility Enclave" style="rounded=0;whiteSpace=wrap;html=1;fillColor=#d5e8d4;strokeColor=#82b366;" vertex="1" parent="1">
          <mxGeometry x="640" y="330" width="90" height="40" as="geometry" />
        </mxCell>
        <mxCell id="udzYq2lRkhovAogSRPK8-14" value="Runtime" style="rounded=0;whiteSpace=wrap;html=1;" vertex="1" parent="1">
          <mxGeometry x="850" y="330" width="120" height="40" as="geometry" />
        </mxCell>
        <mxCell id="udzYq2lRkhovAogSRPK8-15" value="Guest OS" style="rounded=0;whiteSpace=wrap;html=1;" vertex="1" parent="1">
          <mxGeometry x="1040" y="330" width="80" height="40" as="geometry" />
        </mxCell>
        <mxCell id="udzYq2lRkhovAogSRPK8-16" value="Guest OS" style="rounded=0;whiteSpace=wrap;html=1;" vertex="1" parent="1">
          <mxGeometry x="1190" y="330" width="80" height="40" as="geometry" />
        </mxCell>
        <mxCell id="udzYq2lRkhovAogSRPK8-17" value="TSM" style="rounded=0;whiteSpace=wrap;html=1;fillColor=#d5e8d4;strokeColor=#82b366;" vertex="1" parent="1">
          <mxGeometry x="1030" y="420" width="100" height="40" as="geometry" />
        </mxCell>
        <mxCell id="udzYq2lRkhovAogSRPK8-18" value="VMM/Host OS(HS-mode)" style="rounded=0;whiteSpace=wrap;html=1;" vertex="1" parent="1">
          <mxGeometry x="1160" y="420" width="140" height="40" as="geometry" />
        </mxCell>
        <mxCell id="udzYq2lRkhovAogSRPK8-19" value="Security Monitor" style="rounded=0;whiteSpace=wrap;html=1;fillColor=#d5e8d4;strokeColor=#82b366;" vertex="1" parent="1">
          <mxGeometry x="540" y="500" width="760" height="40" as="geometry" />
        </mxCell>
        <mxCell id="udzYq2lRkhovAogSRPK8-20" value="Secure Storage" style="ellipse;whiteSpace=wrap;html=1;fillColor=#fff2cc;strokeColor=#d6b656;" vertex="1" parent="1">
          <mxGeometry x="530" y="575" width="120" height="50" as="geometry" />
        </mxCell>
        <mxCell id="udzYq2lRkhovAogSRPK8-21" value="CSRs" style="ellipse;whiteSpace=wrap;html=1;fillColor=#fff2cc;strokeColor=#d6b656;" vertex="1" parent="1">
          <mxGeometry x="710" y="575" width="100" height="50" as="geometry" />
        </mxCell>
        <mxCell id="udzYq2lRkhovAogSRPK8-22" value="MMU" style="ellipse;whiteSpace=wrap;html=1;fillColor=#fff2cc;strokeColor=#d6b656;" vertex="1" parent="1">
          <mxGeometry x="870" y="575" width="100" height="50" as="geometry" />
        </mxCell>
        <mxCell id="udzYq2lRkhovAogSRPK8-23" value="RISC-V CPU(s)" style="ellipse;whiteSpace=wrap;html=1;fillColor=#fff2cc;strokeColor=#d6b656;" vertex="1" parent="1">
          <mxGeometry x="1030" y="575" width="120" height="50" as="geometry" />
        </mxCell>
        <mxCell id="udzYq2lRkhovAogSRPK8-25" value="Software TCB" style="text;html=1;align=left;verticalAlign=middle;resizable=0;points=[];autosize=1;strokeColor=none;fillColor=none;" vertex="1" parent="1">
          <mxGeometry x="590" y="655" width="100" height="20" as="geometry" />
        </mxCell>
        <mxCell id="udzYq2lRkhovAogSRPK8-26" value="Hardware TCB" style="text;html=1;align=left;verticalAlign=middle;resizable=0;points=[];autosize=1;strokeColor=none;fillColor=none;" vertex="1" parent="1">
          <mxGeometry x="770" y="655" width="100" height="20" as="geometry" />
        </mxCell>
        <mxCell id="udzYq2lRkhovAogSRPK8-27" value="Call and return" style="text;html=1;align=left;verticalAlign=middle;resizable=0;points=[];autosize=1;strokeColor=none;fillColor=none;" vertex="1" parent="1">
          <mxGeometry x="920" y="655" width="100" height="20" as="geometry" />
        </mxCell>
        <mxCell id="udzYq2lRkhovAogSRPK8-28" value="TEE function call and return&amp;nbsp;&lt;div&gt;(contains: Remote attestation,&amp;nbsp;&lt;/div&gt;&lt;div&gt;I/O device binding, Cluster TEE connection)&lt;/div&gt;" style="text;html=1;align=left;verticalAlign=middle;resizable=0;points=[];autosize=1;strokeColor=none;fillColor=none;" vertex="1" parent="1">
          <mxGeometry x="1040" y="635" width="260" height="60" as="geometry" />
        </mxCell>
        <mxCell id="udzYq2lRkhovAogSRPK8-29" value="" style="endArrow=classic;html=1;dashed=1;entryX=0.5;entryY=0;entryDx=0;entryDy=0;exitX=0.5;exitY=1;exitDx=0;exitDy=0;startArrow=classic;startFill=1;" edge="1" parent="1" source="udzYq2lRkhovAogSRPK8-6" target="udzYq2lRkhovAogSRPK8-11">
          <mxGeometry width="50" height="50" relative="1" as="geometry">
            <mxPoint x="480" y="290" as="sourcePoint" />
            <mxPoint x="530" y="240" as="targetPoint" />
          </mxGeometry>
        </mxCell>
        <mxCell id="udzYq2lRkhovAogSRPK8-30" value="" style="endArrow=classic;startArrow=classic;html=1;entryX=0.5;entryY=1;entryDx=0;entryDy=0;exitX=0.5;exitY=0;exitDx=0;exitDy=0;" edge="1" parent="1" source="udzYq2lRkhovAogSRPK8-12" target="udzYq2lRkhovAogSRPK8-7">
          <mxGeometry width="50" height="50" relative="1" as="geometry">
            <mxPoint x="700" y="320" as="sourcePoint" />
            <mxPoint x="750" y="270" as="targetPoint" />
          </mxGeometry>
        </mxCell>
        <mxCell id="udzYq2lRkhovAogSRPK8-31" value="" style="endArrow=classic;html=1;exitX=0.5;exitY=1;exitDx=0;exitDy=0;dashed=1;startArrow=classic;startFill=1;" edge="1" parent="1" source="udzYq2lRkhovAogSRPK8-14">
          <mxGeometry width="50" height="50" relative="1" as="geometry">
            <mxPoint x="910" y="390" as="sourcePoint" />
            <mxPoint x="911" y="500" as="targetPoint" />
          </mxGeometry>
        </mxCell>
        <mxCell id="udzYq2lRkhovAogSRPK8-32" value="" style="endArrow=classic;html=1;entryX=0.5;entryY=0;entryDx=0;entryDy=0;dashed=1;startArrow=classic;startFill=1;" edge="1" parent="1" target="udzYq2lRkhovAogSRPK8-17">
          <mxGeometry width="50" height="50" relative="1" as="geometry">
            <mxPoint x="1080" y="380" as="sourcePoint" />
            <mxPoint x="1080" y="420" as="targetPoint" />
          </mxGeometry>
        </mxCell>
        <mxCell id="udzYq2lRkhovAogSRPK8-33" value="" style="endArrow=classic;html=1;entryX=0.5;entryY=0;entryDx=0;entryDy=0;exitX=0.5;exitY=1;exitDx=0;exitDy=0;dashed=1;startArrow=classic;startFill=1;" edge="1" parent="1" source="udzYq2lRkhovAogSRPK8-16" target="udzYq2lRkhovAogSRPK8-18">
          <mxGeometry width="50" height="50" relative="1" as="geometry">
            <mxPoint x="1230" y="380" as="sourcePoint" />
            <mxPoint x="1230" y="420" as="targetPoint" />
          </mxGeometry>
        </mxCell>
        <mxCell id="udzYq2lRkhovAogSRPK8-34" value="" style="endArrow=classic;html=1;exitX=0.5;exitY=1;exitDx=0;exitDy=0;dashed=1;startArrow=classic;startFill=1;" edge="1" parent="1" source="udzYq2lRkhovAogSRPK8-17">
          <mxGeometry width="50" height="50" relative="1" as="geometry">
            <mxPoint x="1080" y="470" as="sourcePoint" />
            <mxPoint x="1080" y="500" as="targetPoint" />
          </mxGeometry>
        </mxCell>
        <mxCell id="udzYq2lRkhovAogSRPK8-52" value="" style="endArrow=classic;startArrow=classic;html=1;dashed=1;" edge="1" parent="1">
          <mxGeometry width="50" height="50" relative="1" as="geometry">
            <mxPoint x="910" y="650" as="sourcePoint" />
            <mxPoint x="910" y="680" as="targetPoint" />
          </mxGeometry>
        </mxCell>
        <mxCell id="udzYq2lRkhovAogSRPK8-57" value="Utility Enclave" style="rounded=0;whiteSpace=wrap;html=1;fillColor=#d5e8d4;strokeColor=#82b366;" vertex="1" parent="1">
          <mxGeometry x="540" y="330" width="90" height="40" as="geometry" />
        </mxCell>
        <mxCell id="udzYq2lRkhovAogSRPK8-58" value="" style="endArrow=classic;startArrow=classic;html=1;" edge="1" parent="1">
          <mxGeometry width="50" height="50" relative="1" as="geometry">
            <mxPoint x="1030" y="650" as="sourcePoint" />
            <mxPoint x="1030" y="680" as="targetPoint" />
          </mxGeometry>
        </mxCell>
        <mxCell id="udzYq2lRkhovAogSRPK8-59" value="" style="rounded=0;whiteSpace=wrap;html=1;fillColor=#dae8fc;strokeColor=#6c8ebf;" vertex="1" parent="1">
          <mxGeometry x="360" y="655" width="60" height="20" as="geometry" />
        </mxCell>
        <mxCell id="udzYq2lRkhovAogSRPK8-60" value="Enclave" style="text;html=1;align=left;verticalAlign=middle;resizable=0;points=[];autosize=1;strokeColor=none;fillColor=none;" vertex="1" parent="1">
          <mxGeometry x="430" y="650" width="70" height="30" as="geometry" />
        </mxCell>
        <mxCell id="udzYq2lRkhovAogSRPK8-61" value="" style="rounded=0;whiteSpace=wrap;html=1;fillColor=#d5e8d4;strokeColor=#82b366;" vertex="1" parent="1">
          <mxGeometry x="520" y="655" width="60" height="20" as="geometry" />
        </mxCell>
        <mxCell id="udzYq2lRkhovAogSRPK8-62" value="" style="rounded=0;whiteSpace=wrap;html=1;fillColor=#fff2cc;strokeColor=#d6b656;" vertex="1" parent="1">
          <mxGeometry x="700" y="655" width="60" height="20" as="geometry" />
        </mxCell>
        <mxCell id="udzYq2lRkhovAogSRPK8-64" value="" style="endArrow=none;html=1;dashed=1;startArrow=none;startFill=0;" edge="1" parent="1">
          <mxGeometry width="50" height="50" relative="1" as="geometry">
            <mxPoint x="1300" y="560" as="sourcePoint" />
            <mxPoint x="330" y="560" as="targetPoint" />
          </mxGeometry>
        </mxCell>
        <mxCell id="udzYq2lRkhovAogSRPK8-77" style="edgeStyle=orthogonalEdgeStyle;rounded=0;orthogonalLoop=1;jettySize=auto;html=1;exitX=0.5;exitY=0;exitDx=0;exitDy=0;entryX=0.375;entryY=0;entryDx=0;entryDy=0;entryPerimeter=0;" edge="1" parent="1" source="udzYq2lRkhovAogSRPK8-65" target="udzYq2lRkhovAogSRPK8-67">
          <mxGeometry relative="1" as="geometry" />
        </mxCell>
        <mxCell id="udzYq2lRkhovAogSRPK8-65" value="App Enclave" style="rounded=0;whiteSpace=wrap;html=1;fillColor=#dae8fc;strokeColor=#6c8ebf;" vertex="1" parent="1">
          <mxGeometry x="540" y="230" width="90" height="40" as="geometry" />
        </mxCell>
        <mxCell id="udzYq2lRkhovAogSRPK8-67" value="Attestation&lt;div&gt;Enclave&lt;/div&gt;" style="rounded=0;whiteSpace=wrap;html=1;fillColor=#d5e8d4;strokeColor=#82b366;" vertex="1" parent="1">
          <mxGeometry x="740" y="330" width="80" height="40" as="geometry" />
        </mxCell>
        <mxCell id="udzYq2lRkhovAogSRPK8-68" value="" style="endArrow=classic;startArrow=classic;html=1;entryX=0.5;entryY=1;entryDx=0;entryDy=0;exitX=0.5;exitY=0;exitDx=0;exitDy=0;" edge="1" parent="1">
          <mxGeometry width="50" height="50" relative="1" as="geometry">
            <mxPoint x="584.38" y="330" as="sourcePoint" />
            <mxPoint x="584.38" y="270" as="targetPoint" />
          </mxGeometry>
        </mxCell>
        <mxCell id="udzYq2lRkhovAogSRPK8-69" value="" style="endArrow=classic;html=1;exitX=0.5;exitY=1;exitDx=0;exitDy=0;dashed=1;startArrow=classic;startFill=1;" edge="1" parent="1">
          <mxGeometry width="50" height="50" relative="1" as="geometry">
            <mxPoint x="684.38" y="370" as="sourcePoint" />
            <mxPoint x="685.38" y="500" as="targetPoint" />
          </mxGeometry>
        </mxCell>
        <mxCell id="udzYq2lRkhovAogSRPK8-70" value="" style="endArrow=classic;html=1;exitX=0.5;exitY=1;exitDx=0;exitDy=0;dashed=1;startArrow=classic;startFill=1;" edge="1" parent="1">
          <mxGeometry width="50" height="50" relative="1" as="geometry">
            <mxPoint x="584.38" y="370" as="sourcePoint" />
            <mxPoint x="585.38" y="500" as="targetPoint" />
          </mxGeometry>
        </mxCell>
        <mxCell id="udzYq2lRkhovAogSRPK8-71" value="" style="endArrow=classic;html=1;exitX=0.5;exitY=1;exitDx=0;exitDy=0;dashed=1;startArrow=classic;startFill=1;" edge="1" parent="1">
          <mxGeometry width="50" height="50" relative="1" as="geometry">
            <mxPoint x="784.38" y="370" as="sourcePoint" />
            <mxPoint x="785.38" y="500" as="targetPoint" />
          </mxGeometry>
        </mxCell>
        <mxCell id="udzYq2lRkhovAogSRPK8-80" style="edgeStyle=orthogonalEdgeStyle;rounded=0;orthogonalLoop=1;jettySize=auto;html=1;exitX=0.5;exitY=0;exitDx=0;exitDy=0;entryX=0.619;entryY=0.009;entryDx=0;entryDy=0;entryPerimeter=0;" edge="1" parent="1" source="udzYq2lRkhovAogSRPK8-54" target="udzYq2lRkhovAogSRPK8-67">
          <mxGeometry relative="1" as="geometry">
            <Array as="points">
              <mxPoint x="1080" y="210" />
              <mxPoint x="790" y="210" />
            </Array>
          </mxGeometry>
        </mxCell>
        <mxCell id="udzYq2lRkhovAogSRPK8-81" style="edgeStyle=orthogonalEdgeStyle;rounded=0;orthogonalLoop=1;jettySize=auto;html=1;exitX=1;exitY=0.5;exitDx=0;exitDy=0;entryX=0.134;entryY=0.009;entryDx=0;entryDy=0;entryPerimeter=0;" edge="1" parent="1" source="udzYq2lRkhovAogSRPK8-7" target="udzYq2lRkhovAogSRPK8-67">
          <mxGeometry relative="1" as="geometry" />
        </mxCell>
      </root>
    </mxGraphModel>
  </diagram>
</mxfile>
